<svg id="visual" viewBox="0 0 900 675" width="900" height="675" xmlns="http://www.w3.org/2000/svg" xmlns:xlink="http://www.w3.org/1999/xlink" version="1.1"><path d="M0 183L82 183L82 129L164 129L164 129L245 129L245 197L327 197L327 123L409 123L409 156L491 156L491 210L573 210L573 170L655 170L655 102L736 102L736 183L818 183L818 163L900 163L900 197L900 0L900 0L818 0L818 0L736 0L736 0L655 0L655 0L573 0L573 0L491 0L491 0L409 0L409 0L327 0L327 0L245 0L245 0L164 0L164 0L82 0L82 0L0 0Z" fill="#fa7268"></path><path d="M0 366L82 366L82 406L164 406L164 298L245 298L245 345L327 345L327 332L409 332L409 305L491 305L491 379L573 379L573 312L655 312L655 318L736 318L736 426L818 426L818 366L900 366L900 399L900 195L900 161L818 161L818 181L736 181L736 100L655 100L655 168L573 168L573 208L491 208L491 154L409 154L409 121L327 121L327 195L245 195L245 127L164 127L164 127L82 127L82 181L0 181Z" fill="#ed6266"></path><path d="M0 426L82 426L82 460L164 460L164 406L245 406L245 413L327 413L327 406L409 406L409 426L491 426L491 426L573 426L573 420L655 420L655 447L736 447L736 487L818 487L818 433L900 433L900 521L900 397L900 364L818 364L818 424L736 424L736 316L655 316L655 310L573 310L573 377L491 377L491 303L409 303L409 330L327 330L327 343L245 343L245 296L164 296L164 404L82 404L82 364L0 364Z" fill="#df5265"></path><path d="M0 521L82 521L82 528L164 528L164 541L245 541L245 555L327 555L327 501L409 501L409 555L491 555L491 534L573 534L573 534L655 534L655 588L736 588L736 588L818 588L818 561L900 561L900 588L900 519L900 431L818 431L818 485L736 485L736 445L655 445L655 418L573 418L573 424L491 424L491 424L409 424L409 404L327 404L327 411L245 411L245 404L164 404L164 458L82 458L82 424L0 424Z" fill="#d04263"></path><path d="M0 575L82 575L82 615L164 615L164 609L245 609L245 615L327 615L327 588L409 588L409 629L491 629L491 615L573 615L573 602L655 602L655 629L736 629L736 629L818 629L818 622L900 622L900 629L900 586L900 559L818 559L818 586L736 586L736 586L655 586L655 532L573 532L573 532L491 532L491 553L409 553L409 499L327 499L327 553L245 553L245 539L164 539L164 526L82 526L82 519L0 519Z" fill="#c13361"></path><path d="M0 676L82 676L82 676L164 676L164 676L245 676L245 676L327 676L327 676L409 676L409 676L491 676L491 676L573 676L573 676L655 676L655 676L736 676L736 676L818 676L818 676L900 676L900 676L900 627L900 620L818 620L818 627L736 627L736 627L655 627L655 600L573 600L573 613L491 613L491 627L409 627L409 586L327 586L327 613L245 613L245 607L164 607L164 613L82 613L82 573L0 573Z" fill="#b0235f"></path></svg>